<svg width="24" height="24" xmlns="http://www.w3.org/2000/svg" fill-rule="evenodd" clip-rule="evenodd"><path d="M11 2h10l3 3v2h-5v5h1v3s-1.073-.164-2.079 0c-.736.12-1.921.778-1.921 2 0 1.104.896 2 2 2 .702 0 1.321-.363 1.678-.911.368-.618 1.228-.097.878.511-.544.838-1.485 1.4-2.556 1.4-1.656 0-3-1.344-3-3 0-1.305.835-2.417 2-2.829v-2.171h1v-5h-7v17h-6v-17h-1v2h-4v-7h5v-2h6v2zm-1 5h-4v16h4v-16zm-1 13l-2 1v1l2-1v-1zm0-3l-2 1v1l2-1v-1zm0-3l-2 1v1l2-1v-1zm10-1.01h-1v1.01h1v-1.01zm-10-1.99l-2 1v1l2-1v-1zm0-3l-2 1v1l2-1v-1zm1-7h-4v2h-5v5h2v-2h20v-.586l-2.414-2.414h-10.586v-2z"/></svg>