<?xml version="1.0" encoding="UTF-8" standalone="no"?>
<svg
   xmlns:dc="http://purl.org/dc/elements/1.1/"
   xmlns:cc="http://creativecommons.org/ns#"
   xmlns:rdf="http://www.w3.org/1999/02/22-rdf-syntax-ns#"
   xmlns:svg="http://www.w3.org/2000/svg"
   xmlns="http://www.w3.org/2000/svg"
   xmlns:sodipodi="http://sodipodi.sourceforge.net/DTD/sodipodi-0.dtd"
   xmlns:inkscape="http://www.inkscape.org/namespaces/inkscape"
   width="24"
   height="24"
   viewBox="0 0 24 24"
   version="1.1"
   id="svg22"
   sodipodi:docname="web-page.svg"
   inkscape:version="0.92.4 (5da689c313, 2019-01-14)">
  <metadata
     id="metadata28">
    <rdf:RDF>
      <cc:Work
         rdf:about="">
        <dc:format>image/svg+xml</dc:format>
        <dc:type
           rdf:resource="http://purl.org/dc/dcmitype/StillImage" />
        <dc:title></dc:title>
      </cc:Work>
    </rdf:RDF>
  </metadata>
  <defs
     id="defs26" />
  <sodipodi:namedview
     pagecolor="#ffffff"
     bordercolor="#666666"
     borderopacity="1"
     objecttolerance="10"
     gridtolerance="10"
     guidetolerance="10"
     inkscape:pageopacity="0"
     inkscape:pageshadow="2"
     inkscape:window-width="1366"
     inkscape:window-height="705"
     id="namedview24"
     showgrid="false"
     inkscape:zoom="19.916667"
     inkscape:cx="13.280335"
     inkscape:cy="12"
     inkscape:window-x="-8"
     inkscape:window-y="-8"
     inkscape:window-maximized="1"
     inkscape:current-layer="layer1" />
  <path
     d="m 8.4968367,1.8343096 c 3.6864933,0 2.3399833,5.3221754 2.3399833,5.3221754 0,0 5.322175,-1.4635979 5.322175,2.1794314 V 19.574895 H 1.9665272 V 1.8343096 Z M 9.2304099,0.06025104 H 0.1924686 V 21.348954 H 17.933054 V 8.5881506 c 0,-2.1208874 -5.896971,-8.52789956 -8.7026441,-8.52789956 z M 13.497907,11.591631 H 4.6276148 v -0.887029 h 8.8702922 z m 0,1.774059 H 4.6276148 v 0.88703 h 8.8702922 z m 0,2.661088 H 4.6276148 v 0.887029 h 8.8702922 z"
     id="path20"
     inkscape:connector-curvature="0"
     style="stroke-width:0.88702935" />
  <g
     inkscape:groupmode="layer"
     id="layer2"
     inkscape:label="Layer 2">
    <circle
       style="display:inline;opacity:1;fill:#f9f9f9;fill-opacity:1;fill-rule:nonzero;stroke:none;stroke-width:0;stroke-miterlimit:4;stroke-dasharray:none;stroke-opacity:1"
       id="path3778"
       cx="15.665272"
       cy="18.527197"
       r="6.1255231" />
  </g>
  <g
     inkscape:groupmode="layer"
     id="layer1"
     inkscape:label="Layer 1"
     style="display:inline">
    <g
       style="clip-rule:evenodd;fill-rule:evenodd"
       id="g3756"
       transform="matrix(0.40376569,0,0,0.40376569,10.71114,13.683681)">
      <path
         id="path3745"
         d="M 12.02,0 C 18.634,0.011 24,5.383 24,12 24,18.623 18.624,24 12,24 5.377,24 0,18.623 0,12 0,5.383 5.367,0.011 11.981,0 Z m 3.694,16 H 8.287 c 0.639,4.266 2.242,7 3.713,7 1.472,0 3.075,-2.734 3.714,-7 m 6.535,0 h -5.523 c -0.426,2.985 -1.321,5.402 -2.485,6.771 3.669,-0.76 6.671,-3.35 8.008,-6.771 M 7.275,16 H 1.751 c 1.338,3.421 4.34,6.011 8.009,6.771 C 8.596,21.402 7.701,18.985 7.275,16 M 7.152,9 H 1.416 c -0.331,1.166 -0.741,3.389 0,6 h 5.736 c -0.188,-1.814 -0.215,-3.925 0,-6 m 8.691,0 H 8.158 c -0.195,1.8 -0.225,3.927 0,6 h 7.685 c 0.196,-1.811 0.224,-3.93 0,-6 m 6.742,0 h -5.736 c 0.062,0.592 0.308,3.019 0,6 h 5.736 c 0.741,-2.612 0.331,-4.835 0,-6 M 9.76,1.229 C 6.091,1.989 3.089,4.579 1.751,8 H 7.275 C 7.701,5.015 8.596,2.597 9.76,1.229 M 15.714,8 C 15.075,3.734 13.472,1 12,1 10.529,1 8.926,3.734 8.287,8 Z M 14.241,1.229 C 15.405,2.597 16.3,5.015 16.726,8 h 5.523 C 20.912,4.579 17.91,1.989 14.241,1.229"
         inkscape:connector-curvature="0" />
    </g>
  </g>
</svg>
