<?xml version="1.0" encoding="UTF-8" standalone="no"?>
<svg
   xmlns:dc="http://purl.org/dc/elements/1.1/"
   xmlns:cc="http://creativecommons.org/ns#"
   xmlns:rdf="http://www.w3.org/1999/02/22-rdf-syntax-ns#"
   xmlns:svg="http://www.w3.org/2000/svg"
   xmlns="http://www.w3.org/2000/svg"
   xmlns:sodipodi="http://sodipodi.sourceforge.net/DTD/sodipodi-0.dtd"
   xmlns:inkscape="http://www.inkscape.org/namespaces/inkscape"
   width="24"
   height="24"
   viewBox="0 0 24 24"
   version="1.1"
   id="svg22"
   sodipodi:docname="web-scraper.svg"
   inkscape:version="0.92.4 (5da689c313, 2019-01-14)">
  <metadata
     id="metadata28">
    <rdf:RDF>
      <cc:Work
         rdf:about="">
        <dc:format>image/svg+xml</dc:format>
        <dc:type
           rdf:resource="http://purl.org/dc/dcmitype/StillImage" />
        <dc:title></dc:title>
      </cc:Work>
    </rdf:RDF>
  </metadata>
  <defs
     id="defs26" />
  <sodipodi:namedview
     pagecolor="#ffffff"
     bordercolor="#666666"
     borderopacity="1"
     objecttolerance="10"
     gridtolerance="10"
     guidetolerance="10"
     inkscape:pageopacity="0"
     inkscape:pageshadow="2"
     inkscape:window-width="1366"
     inkscape:window-height="705"
     id="namedview24"
     showgrid="false"
     inkscape:zoom="14.08321"
     inkscape:cx="23.658753"
     inkscape:cy="11.308921"
     inkscape:window-x="-8"
     inkscape:window-y="-8"
     inkscape:window-maximized="1"
     inkscape:current-layer="layer2" />
  <g
     inkscape:groupmode="layer"
     id="layer2"
     inkscape:label="Layer 2">
    <g
       style="fill:#000000"
       id="g3922"
       transform="matrix(-0.11261457,0,0,0.11261457,21.166157,1.499604)">
      <g
         transform="translate(-421.662,-997.216)"
         id="scraper">
        <path
           d="m 567.7,1015.657 a 4,4 0 1 0 5.656,0 4,4 0 0 0 -5.656,0 z"
           data-name="Path 105"
           id="Path_105"
           inkscape:connector-curvature="0" />
        <path
           d="m 591.8,1017.423 a 19.372,19.372 0 0 0 -5.711,-13.787 l -0.707,-0.709 a 19.5,19.5 0 0 0 -27.578,0 l -40.61,40.61 c -25.274,-2.8 -61.3,14.466 -92.591,44.575 l -2.94,2.828 77.541,77.54 2.827,-2.939 c 30.688,-31.9 48.212,-69.5 44.308,-94.58 l 39.75,-39.75 a 19.373,19.373 0 0 0 5.711,-13.788 z m -52.871,60.949 c 0.113,21.706 -14.987,51.8 -39.863,78.658 l -65.951,-65.951 c 25.689,-23.775 54.811,-38.8 76.333,-39.794 l -7.859,7.859 28.285,28.283 z m 41.5,-52.817 -50.558,50.56 -16.971,-16.971 50.559,-50.559 a 11.5,11.5 0 0 1 16.262,0 l 0.708,0.709 a 11.5,11.5 0 0 1 0,16.263 z"
           data-name="Path 106"
           id="Path_106"
           inkscape:connector-curvature="0" />
      </g>
    </g>
  </g>
  <g
     inkscape:groupmode="layer"
     id="layer1"
     inkscape:label="Web"
     style="display:inline">
    <circle
       style="display:inline;opacity:1;fill:#f9f9f9;fill-opacity:1;fill-rule:nonzero;stroke:none;stroke-width:0;stroke-miterlimit:4;stroke-dasharray:none;stroke-opacity:1"
       id="path3778"
       cx="18.884016"
       cy="18.850658"
       r="4.9958158" />
    <g
       style="clip-rule:evenodd;fill-rule:evenodd"
       id="g3756"
       transform="matrix(0.31380753,0,0,0.31380753,14.910147,15.716561)">
      <path
         id="path3745"
         d="m 12.5913,-2.4860079 c 6.614,0.011 11.98,5.383 11.98,12 0,6.6229999 -5.376,11.9999999 -12,11.9999999 -6.6230001,0 -12.00000012,-5.377 -12.00000012,-11.9999999 0,-6.617 5.36700002,-11.989 11.98100012,-12 z m 3.694,15.9999999 H 8.8582999 c 0.639,4.266 2.2420001,7 3.7130001,7 1.472,0 3.075,-2.734 3.714,-7 m 6.535,0 h -5.523 c -0.426,2.985 -1.321,5.402 -2.485,6.771 3.669,-0.76 6.671,-3.35 8.008,-6.771 m -14.9740001,0 h -5.524 c 1.338,3.421 4.34,6.011 8.0090001,6.771 -1.1640001,-1.369 -2.0590001,-3.786 -2.4850001,-6.771 m -0.123,-6.9999999 h -5.736 c -0.331,1.166 -0.741,3.389 0,5.9999999 h 5.736 c -0.188,-1.814 -0.215,-3.9249999 0,-5.9999999 m 8.6910001,0 H 8.7292999 c -0.195,1.8 -0.225,3.9269999 0,5.9999999 H 16.4143 c 0.196,-1.811 0.224,-3.9299999 0,-5.9999999 m 6.742,0 h -5.736 c 0.062,0.592 0.308,3.019 0,5.9999999 h 5.736 c 0.741,-2.6119999 0.331,-4.8349999 0,-5.9999999 m -12.825,-7.771 c -3.6690001,0.76000004 -6.6710001,3.35 -8.0090001,6.771 h 5.524 c 0.426,-2.985 1.321,-5.40299996 2.4850001,-6.771 m 5.954,6.771 c -0.639,-4.266 -2.242,-7 -3.714,-7 -1.471,0 -3.0740001,2.734 -3.7130001,7 z m -1.473,-6.771 c 1.164,1.36800004 2.059,3.786 2.485,6.771 h 5.523 c -1.337,-3.421 -4.339,-6.01099996 -8.008,-6.771"
         inkscape:connector-curvature="0" />
    </g>
  </g>
</svg>
