<?xml version="1.0" encoding="UTF-8" standalone="no"?>
<svg
   xmlns:dc="http://purl.org/dc/elements/1.1/"
   xmlns:cc="http://creativecommons.org/ns#"
   xmlns:rdf="http://www.w3.org/1999/02/22-rdf-syntax-ns#"
   xmlns:svg="http://www.w3.org/2000/svg"
   xmlns="http://www.w3.org/2000/svg"
   xmlns:sodipodi="http://sodipodi.sourceforge.net/DTD/sodipodi-0.dtd"
   xmlns:inkscape="http://www.inkscape.org/namespaces/inkscape"
   width="24"
   height="24"
   viewBox="0 0 24 24"
   version="1.1"
   id="svg22"
   sodipodi:docname="web-API.svg"
   inkscape:version="0.92.4 (5da689c313, 2019-01-14)">
  <metadata
     id="metadata28">
    <rdf:RDF>
      <cc:Work
         rdf:about="">
        <dc:format>image/svg+xml</dc:format>
        <dc:type
           rdf:resource="http://purl.org/dc/dcmitype/StillImage" />
        <dc:title></dc:title>
      </cc:Work>
    </rdf:RDF>
  </metadata>
  <defs
     id="defs26" />
  <sodipodi:namedview
     pagecolor="#ffffff"
     bordercolor="#666666"
     borderopacity="1"
     objecttolerance="10"
     gridtolerance="10"
     guidetolerance="10"
     inkscape:pageopacity="0"
     inkscape:pageshadow="2"
     inkscape:window-width="1366"
     inkscape:window-height="705"
     id="namedview24"
     showgrid="false"
     inkscape:zoom="19.916667"
     inkscape:cx="13.280335"
     inkscape:cy="12"
     inkscape:window-x="-8"
     inkscape:window-y="-8"
     inkscape:window-maximized="1"
     inkscape:current-layer="layer2" />
  <g
     inkscape:groupmode="layer"
     id="layer2"
     inkscape:label="Layer 2">
    <path
       id="path3863"
       d="M 22.437655,13.408619 V 9.4097949 C 20.473898,8.7094979 19.945474,8.6765857 19.670293,8.0119435 19.393282,7.3454727 19.746174,6.9432133 20.638459,5.0653933 L 17.810758,2.2376924 C 15.958536,3.1180921 15.536164,3.4846966 14.863293,3.2058576 14.198651,2.9297615 14.161168,2.3931108 13.46727,0.4384958 H 9.4675315 C 8.7690629,2.3985962 8.7361508,2.9297615 8.0696801,3.2058576 7.3821822,3.4920104 6.9698663,3.1144352 5.1231298,2.2376924 L 2.2954291,5.0653933 C 3.1886279,6.9441276 3.5406047,7.3445585 3.2635943,8.0128576 2.9874982,8.6774999 2.4581614,8.7113263 0.49623246,9.4097949 v 3.9997381 c 1.95552924,0.694812 2.49126574,0.731381 2.76736184,1.396937 0.2779246,0.671042 -0.074052,1.066902 -0.9681652,2.946551 l 2.8277007,2.827701 c 1.8275377,-0.868514 2.2581381,-1.255233 2.9465503,-0.968166 0.6655565,0.276097 0.6984686,0.80452 1.3978514,2.767362 h 3.9988245 c 0.692982,-1.948215 0.730467,-2.489437 1.405164,-2.771019 0.681099,-0.281581 1.084273,0.09051 2.939238,0.970908 l 2.827701,-2.827701 c -0.891371,-1.874164 -1.245177,-2.27825 -0.968166,-2.94655 0.274268,-0.663728 0.80452,-0.697555 2.767362,-1.396937 z m -4.456851,0.698468 c -0.527508,1.274431 -0.06217,2.247168 0.446142,3.271101 l -0.991021,0.991021 c -0.999249,-0.496426 -1.975643,-0.983708 -3.26653,-0.447972 -1.276258,0.531167 -1.636463,1.547785 -2.000326,2.630229 H 10.766646 C 10.402784,19.468109 10.043494,18.451489 8.7708914,17.923067 7.4736048,17.385501 6.4789269,17.881927 5.4988767,18.369209 L 4.50877,17.378188 C 5.0179938,16.356083 5.4833349,15.385176 4.9539981,14.105259 4.4246611,12.833572 3.408042,12.47428 2.3246844,12.110418 V 10.70891 C 3.408042,10.345048 4.4246611,9.9857572 4.9530838,8.7122405 5.4815064,7.4378095 5.0152512,6.4641589 4.5069415,5.4402258 L 5.4979624,4.4492049 C 6.487155,4.9410585 7.474519,5.4338263 8.7708914,4.8953472 10.043494,4.3678389 10.402784,3.3503053 10.766646,2.2669477 h 1.402423 c 0.363863,1.0833576 0.724068,2.0999768 1.99667,2.6283995 1.297286,0.5375649 2.29105,0.04114 3.272015,-0.4461423 l 0.991021,0.9910209 c -0.508311,1.0248473 -0.973652,1.9994122 -0.446143,3.272929 0.527509,1.2716882 1.544127,1.6309792 2.6284,1.9957552 v 1.402423 c -1.086101,0.363861 -2.104549,0.723152 -2.630228,1.995754 z M 11.466943,8.6665292 c 1.512131,0 2.742679,1.2305482 2.742679,2.7426788 0,1.512129 -1.230548,2.742677 -2.742679,2.742677 -1.512129,0 -2.7426772,-1.230548 -2.7426772,-2.742677 0,-1.5121306 1.2305482,-2.7426788 2.7426772,-2.7426788 z m 0,-1.8284518 c -2.5250914,0 -4.571129,2.0460376 -4.571129,4.5711306 0,2.525091 2.0460376,4.571129 4.571129,4.571129 2.525093,0 4.571131,-2.046038 4.571131,-4.571129 0,-2.525093 -2.046038,-4.5711306 -4.571131,-4.5711306 z"
       inkscape:connector-curvature="0"
       style="stroke-width:0.91422588" />
  </g>
  <g
     inkscape:groupmode="layer"
     id="layer1"
     inkscape:label="Web"
     style="display:inline">
    <circle
       style="display:inline;opacity:1;fill:#f9f9f9;fill-opacity:1;fill-rule:nonzero;stroke:none;stroke-width:0;stroke-miterlimit:4;stroke-dasharray:none;stroke-opacity:1"
       id="path3778"
       cx="18.884016"
       cy="18.850658"
       r="4.9958158" />
    <g
       style="clip-rule:evenodd;fill-rule:evenodd"
       id="g3756"
       transform="matrix(0.31380753,0,0,0.31380753,14.910147,15.716561)">
      <path
         id="path3745"
         d="m 12.5913,-2.4860079 c 6.614,0.011 11.98,5.383 11.98,12 0,6.6229999 -5.376,11.9999999 -12,11.9999999 -6.6230001,0 -12.00000012,-5.377 -12.00000012,-11.9999999 0,-6.617 5.36700002,-11.989 11.98100012,-12 z m 3.694,15.9999999 H 8.8582999 c 0.639,4.266 2.2420001,7 3.7130001,7 1.472,0 3.075,-2.734 3.714,-7 m 6.535,0 h -5.523 c -0.426,2.985 -1.321,5.402 -2.485,6.771 3.669,-0.76 6.671,-3.35 8.008,-6.771 m -14.9740001,0 h -5.524 c 1.338,3.421 4.34,6.011 8.0090001,6.771 -1.1640001,-1.369 -2.0590001,-3.786 -2.4850001,-6.771 m -0.123,-6.9999999 h -5.736 c -0.331,1.166 -0.741,3.389 0,5.9999999 h 5.736 c -0.188,-1.814 -0.215,-3.9249999 0,-5.9999999 m 8.6910001,0 H 8.7292999 c -0.195,1.8 -0.225,3.9269999 0,5.9999999 H 16.4143 c 0.196,-1.811 0.224,-3.9299999 0,-5.9999999 m 6.742,0 h -5.736 c 0.062,0.592 0.308,3.019 0,5.9999999 h 5.736 c 0.741,-2.6119999 0.331,-4.8349999 0,-5.9999999 m -12.825,-7.771 c -3.6690001,0.76000004 -6.6710001,3.35 -8.0090001,6.771 h 5.524 c 0.426,-2.985 1.321,-5.40299996 2.4850001,-6.771 m 5.954,6.771 c -0.639,-4.266 -2.242,-7 -3.714,-7 -1.471,0 -3.0740001,2.734 -3.7130001,7 z m -1.473,-6.771 c 1.164,1.36800004 2.059,3.786 2.485,6.771 h 5.523 c -1.337,-3.421 -4.339,-6.01099996 -8.008,-6.771"
         inkscape:connector-curvature="0" />
    </g>
  </g>
</svg>
