<?xml version="1.0" encoding="UTF-8" standalone="no"?>
<svg
   xmlns:dc="http://purl.org/dc/elements/1.1/"
   xmlns:cc="http://creativecommons.org/ns#"
   xmlns:rdf="http://www.w3.org/1999/02/22-rdf-syntax-ns#"
   xmlns:svg="http://www.w3.org/2000/svg"
   xmlns="http://www.w3.org/2000/svg"
   xmlns:sodipodi="http://sodipodi.sourceforge.net/DTD/sodipodi-0.dtd"
   xmlns:inkscape="http://www.inkscape.org/namespaces/inkscape"
   width="24"
   height="24"
   viewBox="0 0 24 24"
   version="1.1"
   id="svg22"
   sodipodi:docname="web-scraper.svg"
   inkscape:version="0.92.4 (5da689c313, 2019-01-14)">
  <metadata
     id="metadata28">
    <rdf:RDF>
      <cc:Work
         rdf:about="">
        <dc:format>image/svg+xml</dc:format>
        <dc:type
           rdf:resource="http://purl.org/dc/dcmitype/StillImage" />
        <dc:title></dc:title>
      </cc:Work>
    </rdf:RDF>
  </metadata>
  <defs
     id="defs26" />
  <sodipodi:namedview
     pagecolor="#ffffff"
     bordercolor="#666666"
     borderopacity="1"
     objecttolerance="10"
     gridtolerance="10"
     guidetolerance="10"
     inkscape:pageopacity="0"
     inkscape:pageshadow="2"
     inkscape:window-width="1366"
     inkscape:window-height="705"
     id="namedview24"
     showgrid="false"
     inkscape:zoom="14.08321"
     inkscape:cx="25.267551"
     inkscape:cy="8.4720355"
     inkscape:window-x="-8"
     inkscape:window-y="-8"
     inkscape:window-maximized="1"
     inkscape:current-layer="layer2" />
  <g
     inkscape:groupmode="layer"
     id="layer2"
     inkscape:label="Layer 2">
    <g
       style="fill:#000000"
       id="g3948"
       transform="matrix(0.41485466,0,0,0.41485466,0.92590061,1.019163)">
      <g
         id="g3937">
	<path
   id="path3935"
   d="M 40.462,19.193 H 39.13 v -1.872 c 0,-3.021 -2.476,-5.458 -5.496,-5.458 H 24.659 V 7.373 C 25.839,6.69 26.632,5.414 26.632,3.95 26.632,1.768 24.861,0 22.681,0 c -2.183,0 -3.963,1.769 -3.963,3.95 0,1.464 0.785,2.74 1.965,3.423 v 4.49 h -8.961 c -3.021,0 -5.448,2.437 -5.448,5.458 v 1.872 H 4.893 c -1.701,0 -3.091,1.407 -3.091,3.108 v 6.653 c 0,1.7 1.39,3.095 3.091,3.095 h 1.381 v 1.887 c 0,3.021 2.427,5.442 5.448,5.442 h 2.564 v 2.884 c 0,1.701 1.393,3.08 3.094,3.08 h 10.596 c 1.701,0 3.08,-1.379 3.08,-3.08 v -2.883 h 2.578 c 3.021,0 5.496,-2.422 5.496,-5.443 V 32.05 h 1.332 c 1.701,0 3.078,-1.394 3.078,-3.095 v -6.653 c 0,-1.701 -1.375,-3.109 -3.078,-3.109 z m -29.781,2.078 c 0,-1.999 1.621,-3.618 3.619,-3.618 1.998,0 3.617,1.619 3.617,3.618 0,1.999 -1.619,3.618 -3.617,3.618 -1.998,0 -3.619,-1.619 -3.619,-3.618 z M 27.606,34.473 H 17.75 c -1.633,0 -2.957,-1.316 -2.957,-2.951 0,-1.633 1.324,-2.949 2.957,-2.949 h 9.857 c 1.633,0 2.957,1.316 2.957,2.949 0,1.633 -1.325,2.951 -2.958,2.951 z m 3.45,-9.584 c -1.998,0 -3.618,-1.619 -3.618,-3.618 0,-1.999 1.62,-3.618 3.618,-3.618 1.999,0 3.619,1.619 3.619,3.618 0,1.999 -1.62,3.618 -3.619,3.618 z"
   inkscape:connector-curvature="0" />

</g>
    </g>
  </g>
  <g
     inkscape:groupmode="layer"
     id="layer1"
     inkscape:label="Web"
     style="display:inline">
    <circle
       style="display:inline;opacity:1;fill:#f9f9f9;fill-opacity:1;fill-rule:nonzero;stroke:none;stroke-width:0;stroke-miterlimit:4;stroke-dasharray:none;stroke-opacity:1"
       id="path3778"
       cx="18.884016"
       cy="18.850658"
       r="4.9958158" />
    <g
       style="clip-rule:evenodd;fill-rule:evenodd"
       id="g3756"
       transform="matrix(0.31380753,0,0,0.31380753,14.910147,15.716561)">
      <path
         id="path3745"
         d="m 12.5913,-2.4860079 c 6.614,0.011 11.98,5.383 11.98,12 0,6.6229999 -5.376,11.9999999 -12,11.9999999 -6.6230001,0 -12.00000012,-5.377 -12.00000012,-11.9999999 0,-6.617 5.36700002,-11.989 11.98100012,-12 z m 3.694,15.9999999 H 8.8582999 c 0.639,4.266 2.2420001,7 3.7130001,7 1.472,0 3.075,-2.734 3.714,-7 m 6.535,0 h -5.523 c -0.426,2.985 -1.321,5.402 -2.485,6.771 3.669,-0.76 6.671,-3.35 8.008,-6.771 m -14.9740001,0 h -5.524 c 1.338,3.421 4.34,6.011 8.0090001,6.771 -1.1640001,-1.369 -2.0590001,-3.786 -2.4850001,-6.771 m -0.123,-6.9999999 h -5.736 c -0.331,1.166 -0.741,3.389 0,5.9999999 h 5.736 c -0.188,-1.814 -0.215,-3.9249999 0,-5.9999999 m 8.6910001,0 H 8.7292999 c -0.195,1.8 -0.225,3.9269999 0,5.9999999 H 16.4143 c 0.196,-1.811 0.224,-3.9299999 0,-5.9999999 m 6.742,0 h -5.736 c 0.062,0.592 0.308,3.019 0,5.9999999 h 5.736 c 0.741,-2.6119999 0.331,-4.8349999 0,-5.9999999 m -12.825,-7.771 c -3.6690001,0.76000004 -6.6710001,3.35 -8.0090001,6.771 h 5.524 c 0.426,-2.985 1.321,-5.40299996 2.4850001,-6.771 m 5.954,6.771 c -0.639,-4.266 -2.242,-7 -3.714,-7 -1.471,0 -3.0740001,2.734 -3.7130001,7 z m -1.473,-6.771 c 1.164,1.36800004 2.059,3.786 2.485,6.771 h 5.523 c -1.337,-3.421 -4.339,-6.01099996 -8.008,-6.771"
         inkscape:connector-curvature="0" />
    </g>
  </g>
</svg>
