<?xml version="1.0" encoding="UTF-8" standalone="no"?>
<svg
   xmlns:dc="http://purl.org/dc/elements/1.1/"
   xmlns:cc="http://creativecommons.org/ns#"
   xmlns:rdf="http://www.w3.org/1999/02/22-rdf-syntax-ns#"
   xmlns:svg="http://www.w3.org/2000/svg"
   xmlns="http://www.w3.org/2000/svg"
   xmlns:sodipodi="http://sodipodi.sourceforge.net/DTD/sodipodi-0.dtd"
   xmlns:inkscape="http://www.inkscape.org/namespaces/inkscape"
   width="24"
   height="24"
   viewBox="0 0 24 24"
   version="1.1"
   id="svg22"
   sodipodi:docname="web-app.svg"
   inkscape:version="0.92.4 (5da689c313, 2019-01-14)">
  <metadata
     id="metadata28">
    <rdf:RDF>
      <cc:Work
         rdf:about="">
        <dc:format>image/svg+xml</dc:format>
        <dc:type
           rdf:resource="http://purl.org/dc/dcmitype/StillImage" />
        <dc:title></dc:title>
      </cc:Work>
    </rdf:RDF>
  </metadata>
  <defs
     id="defs26" />
  <sodipodi:namedview
     pagecolor="#ffffff"
     bordercolor="#666666"
     borderopacity="1"
     objecttolerance="10"
     gridtolerance="10"
     guidetolerance="10"
     inkscape:pageopacity="0"
     inkscape:pageshadow="2"
     inkscape:window-width="1366"
     inkscape:window-height="705"
     id="namedview24"
     showgrid="false"
     inkscape:zoom="19.916667"
     inkscape:cx="13.280335"
     inkscape:cy="12"
     inkscape:window-x="-8"
     inkscape:window-y="-8"
     inkscape:window-maximized="1"
     inkscape:current-layer="g3756" />
  <g
     inkscape:groupmode="layer"
     id="layer2"
     inkscape:label="Layer 2">
    <g
       style="clip-rule:evenodd;fill-rule:evenodd"
       id="g3818"
       transform="matrix(0.8086725,0,0,0.8086725,0.6527194,0.13693417)">
      <path
         id="path3807"
         d="M 24,23 H 0 V 1 H 24 Z M 1,7 V 22 H 23 V 7 Z M 23,6 V 2 H 1 v 4 z"
         inkscape:connector-curvature="0" />
    </g>
  </g>
  <g
     inkscape:groupmode="layer"
     id="layer1"
     inkscape:label="Web"
     style="display:inline">
    <circle
       style="display:inline;opacity:1;fill:#f9f9f9;fill-opacity:1;fill-rule:nonzero;stroke:none;stroke-width:0;stroke-miterlimit:4;stroke-dasharray:none;stroke-opacity:1"
       id="path3778"
       cx="15.866109"
       cy="17.72385"
       r="6.1255231" />
    <g
       style="clip-rule:evenodd;fill-rule:evenodd"
       id="g3756"
       transform="matrix(0.40376569,0,0,0.40376569,10.71114,13.683681)">
      <path
         id="path3745"
         d="m 12.5913,-2.4860079 c 6.614,0.011 11.98,5.383 11.98,12 0,6.6229999 -5.376,11.9999999 -12,11.9999999 -6.6230001,0 -12.00000012,-5.377 -12.00000012,-11.9999999 0,-6.617 5.36700002,-11.989 11.98100012,-12 z m 3.694,15.9999999 H 8.8582999 c 0.639,4.266 2.2420001,7 3.7130001,7 1.472,0 3.075,-2.734 3.714,-7 m 6.535,0 h -5.523 c -0.426,2.985 -1.321,5.402 -2.485,6.771 3.669,-0.76 6.671,-3.35 8.008,-6.771 m -14.9740001,0 h -5.524 c 1.338,3.421 4.34,6.011 8.0090001,6.771 -1.1640001,-1.369 -2.0590001,-3.786 -2.4850001,-6.771 m -0.123,-6.9999999 h -5.736 c -0.331,1.166 -0.741,3.389 0,5.9999999 h 5.736 c -0.188,-1.814 -0.215,-3.9249999 0,-5.9999999 m 8.6910001,0 H 8.7292999 c -0.195,1.8 -0.225,3.9269999 0,5.9999999 H 16.4143 c 0.196,-1.811 0.224,-3.9299999 0,-5.9999999 m 6.742,0 h -5.736 c 0.062,0.592 0.308,3.019 0,5.9999999 h 5.736 c 0.741,-2.6119999 0.331,-4.8349999 0,-5.9999999 m -12.825,-7.771 c -3.6690001,0.76000004 -6.6710001,3.35 -8.0090001,6.771 h 5.524 c 0.426,-2.985 1.321,-5.40299996 2.4850001,-6.771 m 5.954,6.771 c -0.639,-4.266 -2.242,-7 -3.714,-7 -1.471,0 -3.0740001,2.734 -3.7130001,7 z m -1.473,-6.771 c 1.164,1.36800004 2.059,3.786 2.485,6.771 h 5.523 c -1.337,-3.421 -4.339,-6.01099996 -8.008,-6.771"
         inkscape:connector-curvature="0" />
    </g>
  </g>
</svg>
