<?xml version="1.0" encoding="UTF-8" standalone="no"?>
<svg
   xmlns:dc="http://purl.org/dc/elements/1.1/"
   xmlns:cc="http://creativecommons.org/ns#"
   xmlns:rdf="http://www.w3.org/1999/02/22-rdf-syntax-ns#"
   xmlns:svg="http://www.w3.org/2000/svg"
   xmlns="http://www.w3.org/2000/svg"
   xmlns:sodipodi="http://sodipodi.sourceforge.net/DTD/sodipodi-0.dtd"
   xmlns:inkscape="http://www.inkscape.org/namespaces/inkscape"
   width="24"
   height="24"
   viewBox="0 0 24 24"
   version="1.1"
   id="svg22"
   sodipodi:docname="extention.svg"
   inkscape:version="0.92.4 (5da689c313, 2019-01-14)">
  <metadata
     id="metadata28">
    <rdf:RDF>
      <cc:Work
         rdf:about="">
        <dc:format>image/svg+xml</dc:format>
        <dc:type
           rdf:resource="http://purl.org/dc/dcmitype/StillImage" />
        <dc:title></dc:title>
      </cc:Work>
    </rdf:RDF>
  </metadata>
  <defs
     id="defs26" />
  <sodipodi:namedview
     pagecolor="#ffffff"
     bordercolor="#666666"
     borderopacity="1"
     objecttolerance="10"
     gridtolerance="10"
     guidetolerance="10"
     inkscape:pageopacity="0"
     inkscape:pageshadow="2"
     inkscape:window-width="1366"
     inkscape:window-height="705"
     id="namedview24"
     showgrid="false"
     inkscape:zoom="14.08321"
     inkscape:cx="25.267551"
     inkscape:cy="8.4720355"
     inkscape:window-x="-8"
     inkscape:window-y="-8"
     inkscape:window-maximized="1"
     inkscape:current-layer="layer2" />
  <g
     inkscape:groupmode="layer"
     id="layer2"
     inkscape:label="Layer 2">
    <path
       id="path3960"
       d="m 12.639381,5.1703987 h -0.0033 c 0.398427,-0.5150791 0.880645,-1.2708563 0.880645,-2.2541886 0,-1.2913937 -1.231424,-2.67479575 -3.065007,-2.67479575 -1.831939,0 -3.0633637,1.38340205 -3.0633637,2.67479575 0,0.981689 0.4822185,1.7391095 0.8806451,2.2541886 H 2.902993 v 5.3627353 c 0,0.800139 0.3598158,1.42612 0.962795,1.675856 0.5824418,0.240698 1.2708566,0.06407 1.7957935,-0.461683 1.0235852,-1.066303 2.1703959,-0.10761 2.1703959,0.971832 0,1.059732 -1.1468107,2.0406 -2.1720389,0.972653 C 5.1358231,13.166856 4.4474082,12.990233 3.8649664,13.230932 3.2628088,13.479846 2.902993,14.106649 2.902993,14.906786 v 5.050567 H 17.689948 V 5.1703987 Z M 4.5459879,18.314359 v -3.410858 c 0.515079,0.398426 1.2708569,0.880645 2.2541892,0.880645 1.2913937,0 2.6747959,-1.231425 2.6747959,-3.064185 0,-1.83194 -1.3834022,-3.0633646 -2.6747959,-3.0633646 -0.9816902,0 -1.7391102,0.4822196 -2.2541892,0.8806456 V 6.8133943 H 8.265729 c 0.8001375,0 1.4261192,-0.3598161 1.6758552,-0.9619737 C 10.182282,5.268157 10.005658,4.579742 9.4799018,4.0548053 8.4135976,3.0320415 9.3722799,1.8844086 10.451733,1.8844086 c 1.059732,0 2.0406,1.1476329 0.972654,2.17204 -0.524937,0.5241157 -0.70156,1.2125295 -0.46086,1.794972 0.248914,0.6021576 0.875716,0.9619737 1.675854,0.9619737 h 3.407572 V 18.314359 Z"
       inkscape:connector-curvature="0"
       style="stroke-width:0.8214975" />
  </g>
  <g
     inkscape:groupmode="layer"
     id="layer1"
     inkscape:label="Web"
     style="display:inline">
    <circle
       style="display:inline;opacity:1;fill:#f9f9f9;fill-opacity:1;fill-rule:nonzero;stroke:none;stroke-width:0;stroke-miterlimit:4;stroke-dasharray:none;stroke-opacity:1"
       id="path3778"
       cx="18.884016"
       cy="18.850658"
       r="4.9958158" />
    <g
       style="clip-rule:evenodd;fill-rule:evenodd"
       id="g3756"
       transform="matrix(0.31380753,0,0,0.31380753,14.910147,15.716561)">
      <path
         id="path3745"
         d="m 12.5913,-2.4860079 c 6.614,0.011 11.98,5.383 11.98,12 0,6.6229999 -5.376,11.9999999 -12,11.9999999 -6.6230001,0 -12.00000012,-5.377 -12.00000012,-11.9999999 0,-6.617 5.36700002,-11.989 11.98100012,-12 z m 3.694,15.9999999 H 8.8582999 c 0.639,4.266 2.2420001,7 3.7130001,7 1.472,0 3.075,-2.734 3.714,-7 m 6.535,0 h -5.523 c -0.426,2.985 -1.321,5.402 -2.485,6.771 3.669,-0.76 6.671,-3.35 8.008,-6.771 m -14.9740001,0 h -5.524 c 1.338,3.421 4.34,6.011 8.0090001,6.771 -1.1640001,-1.369 -2.0590001,-3.786 -2.4850001,-6.771 m -0.123,-6.9999999 h -5.736 c -0.331,1.166 -0.741,3.389 0,5.9999999 h 5.736 c -0.188,-1.814 -0.215,-3.9249999 0,-5.9999999 m 8.6910001,0 H 8.7292999 c -0.195,1.8 -0.225,3.9269999 0,5.9999999 H 16.4143 c 0.196,-1.811 0.224,-3.9299999 0,-5.9999999 m 6.742,0 h -5.736 c 0.062,0.592 0.308,3.019 0,5.9999999 h 5.736 c 0.741,-2.6119999 0.331,-4.8349999 0,-5.9999999 m -12.825,-7.771 c -3.6690001,0.76000004 -6.6710001,3.35 -8.0090001,6.771 h 5.524 c 0.426,-2.985 1.321,-5.40299996 2.4850001,-6.771 m 5.954,6.771 c -0.639,-4.266 -2.242,-7 -3.714,-7 -1.471,0 -3.0740001,2.734 -3.7130001,7 z m -1.473,-6.771 c 1.164,1.36800004 2.059,3.786 2.485,6.771 h 5.523 c -1.337,-3.421 -4.339,-6.01099996 -8.008,-6.771"
         inkscape:connector-curvature="0" />
    </g>
  </g>
</svg>
